<svg xmlns="http://www.w3.org/2000/svg" width="19.77" height="18.578" viewBox="0 0 19.77 18.578">
  <path id="star" d="M17.691,10.17l2.619,5.2a.211.211,0,0,0,.161.115l5.836.831a.218.218,0,0,1,.115.383L22.21,20.717a.214.214,0,0,0-.061.2l1,5.7a.214.214,0,0,1-.31.23L17.6,24.16a.226.226,0,0,0-.2,0l-5.235,2.681a.214.214,0,0,1-.31-.23l1-5.7a.214.214,0,0,0-.061-.2L8.576,16.688a.218.218,0,0,1,.115-.383l5.844-.831a.211.211,0,0,0,.161-.115l2.612-5.189a.214.214,0,0,1,.383,0Z" transform="translate(-7.614 -9.177)" fill="none" stroke="#000" stroke-width="1.75"/>
</svg>
